<svg xmlns="http://www.w3.org/2000/svg" xmlns:svg="http://www.w3.org/2000/svg" id="svg1437" width="198.696" height="174.947" version="1.1" viewBox="0 0 52.572 46.288"><metadata id="metadata1434"/><g id="layer1" transform="translate(-95.961861,-75.35743)"><g id="g3201" transform="translate(253.20419,120.03116)"><path style="opacity:1;fill:#7f7fff;fill-opacity:1;stroke-width:.58539104" id="path3195" d="m -126.6517,-42.323767 c 4.56539,6.44904 23.84413,31.44422 10.69937,36.6116992 -6.11941,2.812881 -34.03039,-1.647039 -33.61942,-0.920848 -1.99562,3.279839 -3.591,5.91592003 -3.591,5.91592003 0,0 21.45211,0.966808 38.13326,-1.26942103 23.737184,-3.182149 -4.87875,-33.5051802 -11.62221,-40.3373502 z"/><path style="opacity:1;fill:#ff7f7f;fill-opacity:1;stroke-width:.58539104" id="path3197" d="m -126.70389,-42.339787 c -1.52445,0.20891 -29.4473,34.4743892 -29.4473,34.4743892 0,0 2.00676,0.56982 6.57944,1.232482 1.4847,-1.15443 22.28852,-36.2425012 22.92005,-35.6908512 -0.0107,-0.0141 -0.028,-0.0193 -0.0522,-0.016 z"/><path style="opacity:1;fill:#7f3fbf;fill-opacity:1;stroke-width:.58539104" id="path3199" d="m -126.67651,-42.336167 c -0.95961,-0.15608 -22.89524,35.7032512 -22.89524,35.7032512 0,0 19.91462,2.100009 28.07942,1.96215 23.119264,-0.39036 0.17566,-30.5991912 -5.15937,-37.6530012 -0.007,-0.007 -0.0151,-0.0108 -0.0248,-0.0124 z"/></g><text style="font-style:normal;font-variant:normal;font-weight:400;font-stretch:normal;font-size:20.36037064px;line-height:1.25;font-family:'Archivo Black';-inkscape-font-specification:'Archivo Black, Normal';font-variant-ligatures:normal;font-variant-caps:normal;font-variant-numeric:normal;font-feature-settings:normal;text-align:start;letter-spacing:0;word-spacing:0;writing-mode:lr-tb;text-anchor:start;fill:#fff;fill-opacity:1;stroke:none;stroke-width:.50901598" id="text2008" x="151.671" y="34.777" transform="rotate(28.658542)" xml:space="preserve"><tspan id="tspan2006" x="151.671" y="34.777" style="font-style:normal;font-variant:normal;font-weight:400;font-stretch:normal;font-size:20.36037064px;font-family:'Archivo Black';-inkscape-font-specification:'Archivo Black, Normal';font-variant-ligatures:normal;font-variant-caps:normal;font-variant-numeric:normal;font-feature-settings:normal;text-align:start;writing-mode:lr-tb;text-anchor:start;fill:#fff;stroke-width:.50901598">E</tspan></text></g></svg>